<svg width="209" height="120" viewBox="0 0 209 120" fill="none" xmlns="http://www.w3.org/2000/svg">
<path d="M21.194 117.313L2.68652 108.358L21.194 90.1492L27.7611 105.373L21.194 117.313Z" stroke="#D9D9D9" stroke-width="2"/>
<path d="M21.4927 89.5522L31.9404 21.194L36.7166 1.49254L55.821 6.26866L65.0748 23.8806L67.4628 69.5522L81.1942 98.209L89.8509 116.716L113.134 118.507L157.911 89.5522L187.164 48.9552L206.567 34.3284" stroke="#D9D9D9" stroke-width="2"/>
<ellipse cx="2.98507" cy="108.657" rx="2.98507" ry="2.98507" fill="#D9D9D9"/>
<ellipse cx="20.8954" cy="117.612" rx="2.38806" ry="2.38806" fill="#D9D9D9"/>
<circle cx="27.4624" cy="105.672" r="1.79104" fill="#D9D9D9"/>
<circle cx="21.4927" cy="90.1492" r="1.79104" fill="#D9D9D9"/>
<circle cx="32.2388" cy="21.4925" r="1.79104" fill="#D9D9D9"/>
<circle cx="37.0147" cy="1.79104" r="1.79104" fill="#D9D9D9"/>
<circle cx="56.1192" cy="6.56717" r="1.79104" fill="#D9D9D9"/>
<ellipse cx="65.0746" cy="23.8806" rx="2.38806" ry="2.38806" fill="#D9D9D9"/>
<circle cx="67.4629" cy="69.2537" r="1.79104" fill="#D9D9D9"/>
<circle cx="81.1939" cy="98.5075" r="1.79104" fill="#D9D9D9"/>
<circle cx="89.5523" cy="116.418" r="1.79104" fill="#D9D9D9"/>
<circle cx="112.836" cy="118.209" r="1.79104" fill="#D9D9D9"/>
<circle cx="157.612" cy="90.1492" r="1.79104" fill="#D9D9D9"/>
<circle cx="187.462" cy="48.9552" r="1.79104" fill="#D9D9D9"/>
<circle cx="206.567" cy="34.0298" r="1.79104" fill="#D9D9D9"/>
</svg>