<svg width="199" height="73" viewBox="0 0 199 73" fill="none" xmlns="http://www.w3.org/2000/svg">
<path d="M3.5 7.55385V15.2H191.5L194 13.0154V5.36923H7L3.5 7.55385Z" fill="#D9D9D9"/>
<path d="M3.5 39.2308H194V44.6923H187L185 41.9615H136L132.5 44.6923H34L31 46.8769H3.5V39.2308Z" fill="#D9D9D9"/>
<path d="M194 49.0615H3.5V67.6308H194V49.0615Z" fill="#D9D9D9"/>
<path d="M3.5 7.55385V15.2H191.5L194 13.0154V5.36923H7L3.5 7.55385Z" stroke="#D9D9D9"/>
<path d="M3.5 39.2308H194V44.6923H187L185 41.9615H136L132.5 44.6923H34L31 46.8769H3.5V39.2308Z" stroke="#D9D9D9"/>
<path d="M194 49.0615H3.5V67.6308H194V49.0615Z" stroke="#D9D9D9"/>
</svg>