<svg width="392" height="468" viewBox="0 0 392 468" fill="none" xmlns="http://www.w3.org/2000/svg">
<path d="M20.1124 1C18.7619 1 17.4689 1.54631 16.5275 2.51461L1.91503 17.5445C1.00764 18.4779 0.5 19.7282 0.5 21.0299V88.2169C0.5 89.6669 1.12954 91.0456 2.22535 91.9953L6.27465 95.5047C7.37046 96.4544 8 97.8331 8 99.2831V246.929C8 248.255 8.52678 249.527 9.46447 250.464L12.5355 253.536C13.4732 254.473 14 255.745 14 257.071V271.15C14 272.344 13.573 273.498 12.7963 274.404L9.20372 278.596C8.42696 279.502 8 280.656 8 281.85V355.657C8 359.651 12.4507 362.033 15.7735 359.818L18.2518 358.165C20.1608 356.893 22.691 357.083 24.3886 358.626L47.3634 379.512C48.4057 380.46 49 381.803 49 383.212V394.4C49 395.743 49.5405 397.03 50.4996 397.97L73.0418 420.07C73.9764 420.987 75.2332 421.5 76.5421 421.5H85.9604C87.2678 421.5 88.5233 422.012 89.4577 422.927L133.542 466.073C134.477 466.988 135.732 467.5 137.04 467.5H260.991C262.28 467.5 263.52 467.002 264.45 466.11L309.55 422.89C310.48 421.998 311.72 421.5 313.009 421.5H323.458C324.767 421.5 326.024 420.987 326.958 420.07L349.5 397.97C350.46 397.03 351 395.743 351 394.4V383.071C351 381.745 351.527 380.473 352.464 379.536L373.24 358.76C374.862 357.138 377.38 356.828 379.348 358.009L383.428 360.457C386.76 362.456 391 360.056 391 356.169V281.85C391 280.656 390.573 279.502 389.796 278.596L386.204 274.404C385.427 273.498 385 272.344 385 271.15V257.071C385 255.745 385.527 254.473 386.464 253.536L389.536 250.464C390.473 249.527 391 248.255 391 246.929V134.2C391 132.798 390.412 131.461 389.379 130.514L386.621 127.986C385.588 127.039 385 125.702 385 124.3V76.5C385 74.9262 385.741 73.4443 387 72.5L389 71C390.259 70.0557 391 68.5738 391 67V48.4225C391 47.185 390.541 45.9915 389.712 45.0727L373.989 27.6502C373.041 26.5996 371.692 26 370.277 26H177.76C176.323 26 174.956 25.3818 174.007 24.3031L154.993 2.69686C154.044 1.61817 152.677 1 151.24 1H20.1124Z" stroke="#D9D9D9"/>
</svg>