<svg width="402" height="496" viewBox="0 0 402 496" fill="none" xmlns="http://www.w3.org/2000/svg">
<path d="M11.3632 7.53319C9.89376 8.44525 9 10.0519 9 11.7814V62.8338C9 64.2159 8.42796 65.5363 7.41971 66.4815L2.58029 71.0185C1.57204 71.9637 1 73.2841 1 74.6662V411.301C1 412.403 1.36387 413.474 2.03508 414.347L62.4989 493.046C63.4453 494.278 64.9105 495 66.4638 495H327.715C329.166 495 330.546 494.37 331.495 493.273L399.78 414.409C400.567 413.5 401 412.338 401 411.136V74.6662C401 73.2841 400.428 71.9637 399.42 71.0185L394.58 66.4815C393.572 65.5363 393 64.2159 393 62.8338V11.7814C393 10.0519 392.106 8.44526 390.637 7.5332L381.787 2.0403C379.852 0.838926 377.349 1.09777 375.7 2.66981L358.55 19.0225C357.56 19.966 357 21.2738 357 22.6411V36.8463C357 38.2211 356.434 39.5351 355.435 40.4796L330.946 63.6332C330.017 64.5109 328.788 65 327.511 65H316.539C315.232 65 313.977 65.5116 313.043 66.4254L270.457 108.075C269.523 108.988 268.268 109.5 266.961 109.5H134.604C133.259 109.5 131.97 108.957 131.029 107.995L90.4711 66.5049C89.5303 65.5425 88.2414 65 86.8956 65H77.938C76.6912 65 75.4894 64.5342 74.5682 63.6938L49.1302 40.4872C48.0917 39.5398 47.5 38.1991 47.5 36.7934V22.8049C47.5 21.3423 46.8596 19.953 45.7474 19.003L26.279 2.37373C24.6238 0.959953 22.2442 0.779453 20.3948 1.92739L11.3632 7.53319Z" stroke="#D9D9D9"/>
</svg>