<svg width="412" height="520" viewBox="0 0 412 520" fill="none" xmlns="http://www.w3.org/2000/svg">
<path d="M88 189L-24 91" stroke="#D9D9D9" stroke-width="2"/>
<path d="M294 397L423 513" stroke="#D9D9D9" stroke-width="3"/>
<path d="M48 173L15 147" stroke="#D9D9D9" stroke-width="3"/>
<path d="M312 385L454 509" stroke="#D9D9D9" stroke-width="2"/>
<path d="M319 377L469 508" stroke="#D9D9D9" stroke-width="4"/>
<path d="M99 185L-22 79" stroke="#D9D9D9" stroke-width="4"/>
<circle cx="23" cy="381" r="15.5" fill="#D9D9D9" stroke="#D9D9D9"/>
<circle cx="396.5" cy="159.5" r="7" fill="#D9D9D9" stroke="#D9D9D9"/>
<path d="M277.5 223C344.58 223 399 278.718 399 347.5C399 416.282 344.58 472 277.5 472C210.42 472 156 416.282 156 347.5C156 278.718 210.42 223 277.5 223Z" stroke="#D9D9D9" stroke-width="2"/>
<path d="M407.701 505.127C400.902 512.818 389.17 513.727 381.259 507.089C373.349 500.452 372.207 488.74 378.6 480.708L407.701 505.127Z" fill="#D9D9D9" stroke="#D9D9D9"/>
<path d="M2.7089 93.88C9.50847 86.189 21.2405 85.2798 29.1508 91.9174C37.0612 98.555 38.203 110.267 31.8096 118.298L2.7089 93.88Z" fill="#D9D9D9" stroke="#D9D9D9"/>
<path d="M195 272V500" stroke="#D9D9D9" stroke-width="3"/>
<path d="M209 304V486" stroke="#D9D9D9" stroke-width="4"/>
<circle cx="205.5" cy="38.5" r="19.5" fill="#D9D9D9"/>
<circle cx="205.5" cy="7.5" r="7" stroke="#D9D9D9"/>
</svg>