<svg version="1.1" id="Layer_1" xmlns="http://www.w3.org/2000/svg" xmlns:xlink="http://www.w3.org/1999/xlink" x="0px" y="0px"
    width="100%" viewBox="0 0 100 100" enable-background="new 0 0 100 100" xml:space="preserve">
<path fill="#030303" opacity="1.000000" stroke="none"
    d="
M1.000000,41.000000
	C1.000000,27.333338 1.000000,14.166675 1.000000,1.000009
	C34.333321,1.000006 67.666641,1.000006 100.999969,1.000003
	C100.999985,34.333309 100.999985,67.666618 100.999992,100.999954
	C67.666702,100.999969 34.333401,100.999969 1.000051,100.999985
	C1.000000,81.166664 1.000000,61.333332 1.000000,41.000000
M36.952423,7.337737
	C23.826559,11.863245 14.103394,20.292833 8.926535,33.205093
	C6.863632,38.350441 5.961932,44.066963 5.326704,49.614510
	C5.136956,51.271599 7.306792,54.298203 8.985538,54.828041
	C11.958664,55.766403 13.253207,53.167091 13.541898,50.368706
	C13.644396,49.375153 13.730966,48.379829 13.814093,47.384422
	C14.710235,36.653633 19.630316,28.045797 27.975718,21.460234
	C43.150024,9.485810 66.806747,11.460278 78.193085,25.987169
	C74.888954,25.987169 71.970558,26.043018 69.055267,25.971880
	C65.976341,25.896748 63.618015,26.860733 63.668278,30.317137
	C63.715115,33.537655 66.033241,34.304184 68.863251,34.280308
	C75.023186,34.228336 81.184860,34.199680 87.343895,34.291111
	C91.176765,34.348015 92.787071,32.447880 92.778687,28.803501
	C92.764511,22.643089 93.087807,16.455454 92.568764,10.338706
	C92.412262,8.494406 89.936417,6.846918 88.523026,5.109272
	C87.093193,6.832535 84.977364,8.357251 84.406631,10.329165
	C83.688408,12.810672 84.233521,15.657829 84.233521,18.957127
	C67.705078,5.574318 55.375816,2.546296 36.952423,7.337737
M59.387875,96.045151
	C70.266304,93.994263 79.222801,88.642944 86.303680,80.185616
	C93.049278,72.128738 96.547615,62.725487 96.705330,52.285763
	C96.732033,50.517967 94.581055,47.643394 92.896255,47.159294
	C89.890938,46.295753 88.691742,48.948906 88.443214,51.735641
	C88.369324,52.564285 88.279823,53.391651 88.214638,54.220951
	C87.310791,65.720245 81.972580,74.774651 72.743187,81.473610
	C57.564312,92.490891 34.516972,90.042831 23.890274,76.010483
	C27.318676,76.010483 30.409765,76.006844 33.500843,76.011536
	C36.463154,76.016029 38.787800,74.593307 38.134708,71.650169
	C37.786850,70.082573 35.203945,68.036194 33.508865,67.916298
	C27.216728,67.471207 20.873358,67.802895 14.551215,67.708984
	C10.991107,67.656105 9.281552,69.373657 9.248543,72.784981
	C9.187358,79.107880 8.918440,85.457687 9.433597,91.739082
	C9.582295,93.552208 12.114701,95.169830 13.554277,96.877083
	C14.955693,95.123726 17.019920,93.560089 17.589922,91.568741
	C18.294632,89.106773 17.758522,86.289627 17.758522,82.880089
	C30.069822,93.942299 43.132954,98.770012 59.387875,96.045151
z"/>
    <path fill="#E1E0E6" opacity="1.000000" stroke="none"
        d="
M37.332321,7.203036
	C55.375816,2.546296 67.705078,5.574318 84.233521,18.957127
	C84.233521,15.657829 83.688408,12.810672 84.406631,10.329165
	C84.977364,8.357251 87.093193,6.832535 88.523026,5.109273
	C89.936417,6.846918 92.412262,8.494406 92.568764,10.338706
	C93.087807,16.455454 92.764511,22.643089 92.778687,28.803501
	C92.787071,32.447880 91.176765,34.348015 87.343895,34.291111
	C81.184860,34.199680 75.023186,34.228336 68.863251,34.280308
	C66.033241,34.304184 63.715115,33.537655 63.668278,30.317137
	C63.618015,26.860733 65.976341,25.896748 69.055267,25.971880
	C71.970558,26.043018 74.888954,25.987169 78.193085,25.987169
	C66.806747,11.460278 43.150024,9.485810 27.975718,21.460234
	C19.630316,28.045797 14.710235,36.653633 13.814093,47.384422
	C13.730966,48.379829 13.644396,49.375153 13.541898,50.368706
	C13.253207,53.167091 11.958664,55.766403 8.985538,54.828041
	C7.306792,54.298203 5.136956,51.271599 5.326704,49.614510
	C5.961932,44.066963 6.863632,38.350441 8.926535,33.205093
	C14.103394,20.292833 23.826559,11.863245 37.332321,7.203036
z"/>
    <path fill="#E1E0E6" opacity="1.000000" stroke="none"
        d="
M58.958248,96.083817
	C43.132954,98.770012 30.069822,93.942299 17.758522,82.880089
	C17.758522,86.289627 18.294632,89.106773 17.589922,91.568741
	C17.019920,93.560089 14.955693,95.123726 13.554276,96.877083
	C12.114701,95.169830 9.582295,93.552208 9.433597,91.739082
	C8.918440,85.457687 9.187358,79.107880 9.248543,72.784981
	C9.281552,69.373657 10.991107,67.656105 14.551215,67.708984
	C20.873358,67.802895 27.216728,67.471207 33.508865,67.916298
	C35.203945,68.036194 37.786850,70.082573 38.134708,71.650169
	C38.787800,74.593307 36.463154,76.016029 33.500843,76.011536
	C30.409765,76.006844 27.318676,76.010483 23.890274,76.010483
	C34.516972,90.042831 57.564312,92.490891 72.743187,81.473610
	C81.972580,74.774651 87.310791,65.720245 88.214638,54.220951
	C88.279823,53.391651 88.369324,52.564285 88.443214,51.735641
	C88.691742,48.948906 89.890938,46.295753 92.896255,47.159294
	C94.581055,47.643394 96.732033,50.517967 96.705330,52.285763
	C96.547615,62.725487 93.049278,72.128738 86.303680,80.185616
	C79.222801,88.642944 70.266304,93.994263 58.958248,96.083817
z"/>
</svg>