<svg version="1.1" id="Layer_1" xmlns="http://www.w3.org/2000/svg" xmlns:xlink="http://www.w3.org/1999/xlink" x="0px" y="0px"
    width="100%" viewBox="0 0 100 100" enable-background="new 0 0 100 100" xml:space="preserve">
<path fill="#020202" opacity="1.000000" stroke="none"
    d="
M61.000000,101.000000
	C40.666672,101.000000 20.833340,101.000000 1.000008,101.000000
	C1.000005,67.666679 1.000005,34.333351 1.000003,1.000021
	C34.333317,1.000014 67.666634,1.000014 100.999969,1.000007
	C100.999977,34.333313 100.999977,67.666626 100.999985,100.999969
	C87.833336,101.000000 74.666664,101.000000 61.000000,101.000000
M8.004698,74.103928
	C6.526328,76.605003 7.331179,78.634735 10.001290,78.910202
	C17.457056,79.679413 24.581335,79.274162 29.890636,72.583900
	C39.196732,60.857265 49.174335,49.639317 58.043015,37.598675
	C63.533405,30.144592 69.938332,27.568996 78.637856,29.515945
	C79.784004,36.175014 81.048553,36.716537 86.820175,32.918205
	C97.346535,25.990761 97.346535,25.990767 86.897346,19.111176
	C81.222710,15.375076 79.841522,15.960629 78.541870,22.914761
	C77.280670,22.914761 75.948936,23.048647 74.651878,22.893225
	C65.651093,21.814701 59.179466,25.369837 53.774559,32.644348
	C46.341499,42.648567 37.789215,51.820335 30.338392,61.812519
	C24.961454,69.023445 19.350519,74.701004 9.468844,73.093887
	C9.204841,73.050941 8.882686,73.365562 8.004698,74.103928
M54.067043,59.474857
	C52.360226,59.098206 50.653408,58.721554 48.946590,58.344898
	C49.085716,60.120384 48.613724,62.287621 49.460911,63.609215
	C56.079960,73.934776 64.233475,81.723839 77.959167,79.149315
	C78.224220,79.099594 78.553482,79.392120 78.851379,79.528130
	C79.633751,86.174599 80.943893,86.765472 86.607941,83.026306
	C97.351448,75.933907 97.351448,75.933891 87.106354,69.186203
	C81.144585,65.259621 79.953468,65.738617 78.483139,72.483688
	C69.469429,74.579163 62.410816,72.045158 57.671520,63.874454
	C56.847313,62.453499 55.594028,61.281422 54.067043,59.474857
M23.043648,24.037767
	C19.608410,23.661161 16.153215,22.891186 12.745852,23.064043
	C10.875399,23.158932 7.633674,24.708570 7.529226,25.835701
	C7.204436,29.340607 10.354424,29.349274 12.847789,29.040970
	C19.211224,28.254131 23.678438,30.907455 27.118233,36.070980
	C28.765804,38.544170 30.659058,40.934914 32.831917,42.939262
	C33.776794,43.810860 35.705761,43.615635 37.187771,43.904938
	C37.440361,42.436409 38.444023,40.322666 37.825405,39.602547
	C33.323483,34.361961 28.495018,29.401896 23.043648,24.037767
z"/>
    <path fill="#E2E1E6" opacity="1.000000" stroke="none"
        d="
M8.296173,73.808685
	C8.882686,73.365562 9.204841,73.050941 9.468844,73.093887
	C19.350519,74.701004 24.961454,69.023445 30.338392,61.812519
	C37.789215,51.820335 46.341499,42.648567 53.774559,32.644348
	C59.179466,25.369837 65.651093,21.814701 74.651878,22.893225
	C75.948936,23.048647 77.280670,22.914761 78.541870,22.914761
	C79.841522,15.960629 81.222710,15.375076 86.897346,19.111176
	C97.346535,25.990767 97.346535,25.990761 86.820175,32.918205
	C81.048553,36.716537 79.784004,36.175014 78.637856,29.515945
	C69.938332,27.568996 63.533405,30.144592 58.043015,37.598675
	C49.174335,49.639317 39.196732,60.857265 29.890636,72.583900
	C24.581335,79.274162 17.457056,79.679413 10.001290,78.910202
	C7.331179,78.634735 6.526328,76.605003 8.296173,73.808685
z"/>
    <path fill="#E2E1E6" opacity="1.000000" stroke="none"
        d="
M54.302986,59.734627
	C55.594028,61.281422 56.847313,62.453499 57.671520,63.874454
	C62.410816,72.045158 69.469429,74.579163 78.483139,72.483688
	C79.953468,65.738617 81.144585,65.259621 87.106354,69.186203
	C97.351448,75.933891 97.351448,75.933907 86.607941,83.026306
	C80.943893,86.765472 79.633751,86.174599 78.852081,79.526550
	C78.553482,79.392120 78.224220,79.099594 77.959167,79.149315
	C64.233475,81.723839 56.079960,73.934776 49.460911,63.609215
	C48.613724,62.287621 49.085716,60.120384 48.946590,58.344898
	C50.653408,58.721554 52.360226,59.098206 54.302986,59.734627
z"/>
    <path fill="#E1E0E5" opacity="1.000000" stroke="none"
        d="
M23.406704,24.195469
	C28.495018,29.401896 33.323483,34.361961 37.825405,39.602547
	C38.444023,40.322666 37.440361,42.436409 37.187775,43.904938
	C35.705761,43.615635 33.776794,43.810860 32.831917,42.939262
	C30.659058,40.934914 28.765804,38.544170 27.118233,36.070980
	C23.678438,30.907455 19.211224,28.254131 12.847789,29.040970
	C10.354424,29.349274 7.204436,29.340607 7.529226,25.835701
	C7.633674,24.708570 10.875399,23.158932 12.745852,23.064043
	C16.153215,22.891186 19.608410,23.661161 23.406704,24.195469
z"/>
</svg>